<?xml version="1.0" encoding="UTF-8"?>
<svg xmlns="http://www.w3.org/2000/svg" xmlns:xlink="http://www.w3.org/1999/xlink" viewBox="0 0 40 40" version="1.1" width="40px" height="40px">
<g id="surface1">
<path style=" fill:#DFF0FE;" d="M 20 38.5 C 9.800781 38.5 1.5 30.199219 1.5 20 C 1.5 14.625 3.851563 9.523438 7.949219 6 L 8.355469 5.648438 L 4.207031 1.5 L 16.5 1.5 L 16.5 13.792969 L 12.625 9.917969 L 12.277344 10.191406 C 9.242188 12.582031 7.5 16.15625 7.5 20 C 7.5 26.894531 13.105469 32.5 20 32.5 C 26.894531 32.5 32.5 26.894531 32.5 20 C 32.5 14.847656 29.300781 10.210938 24.5 8.351563 L 24.5 2.058594 C 32.648438 4.097656 38.5 11.546875 38.5 20 C 38.5 30.199219 30.199219 38.5 20 38.5 Z "/>
<path style=" fill:#4788C7;" d="M 16 2 L 16 12.585938 L 12.664063 9.25 L 11.96875 9.800781 C 8.8125 12.285156 7 16.003906 7 20 C 7 27.167969 12.832031 33 20 33 C 27.167969 33 33 27.167969 33 20 C 33 14.757813 29.8125 10.027344 25 8.015625 L 25 2.710938 C 32.601563 4.910156 38 11.992188 38 20 C 38 29.925781 29.925781 38 20 38 C 10.074219 38 2 29.925781 2 20 C 2 14.769531 4.285156 9.804688 8.273438 6.382813 L 9.09375 5.679688 L 5.414063 2 L 16 2 M 17 1 L 3 1 L 7.621094 5.621094 C 3.574219 9.101563 1 14.242188 1 20 C 1 30.492188 9.507813 39 20 39 C 30.492188 39 39 30.492188 39 20 C 39 10.878906 32.570313 3.269531 24 1.429688 L 24 8.699219 C 28.652344 10.351563 32 14.785156 32 20 C 32 26.617188 26.617188 32 20 32 C 13.382813 32 8 26.617188 8 20 C 8 16.179688 9.796875 12.78125 12.585938 10.585938 L 17 15 Z "/>
</g>
</svg>
